<svg id="Layer_1" data-name="Layer 1" xmlns="http://www.w3.org/2000/svg" viewBox="0 0 46.97 47.12"><defs><style>.cls-1,.cls-2{fill:none;stroke:#231f20;stroke-miterlimit:10;}.cls-2{stroke-linecap:round;}.cls-3{fill:#231f20;}</style></defs><path class="cls-1" d="M317.38,229.33c.2-.11.41-.23.61-.36v9.29a3.24,3.24,0,0,1-3.24,3.24H281.49a3.24,3.24,0,0,1-3.24-3.24V217.52a3.24,3.24,0,0,1,3.24-3.24h17.24a12.7,12.7,0,0,0-.49,3,5.24,5.24,0,0,0,0,.56,13,13,0,0,0,19.16,11.45Z" transform="translate(-277.75 -204.38)"/><path class="cls-1" d="M298.74,214.22a12.53,12.53,0,0,1,1.37-3.08,13.05,13.05,0,0,1,11.11-6.26,13,13,0,0,1,13,13,12.85,12.85,0,0,1-1.9,6.75,12.33,12.33,0,0,1-1.95,2.48A12.61,12.61,0,0,1,318,229v-.13" transform="translate(-277.75 -204.38)"/><path class="cls-1" d="M316.19,217.88a5,5,0,1,1-9.93,0,3.25,3.25,0,0,1,0-.44,4.87,4.87,0,0,1,1.24-2.87,2.57,2.57,0,0,1,.28-.29,4.86,4.86,0,0,1,2.56-1.29,4.8,4.8,0,0,1,.85-.08,5,5,0,0,1,5,5Z" transform="translate(-277.75 -204.38)"/><circle class="cls-1" cx="33.47" cy="13.5" r="2.48"/><line class="cls-1" x1="26.6" y1="2.46" x2="32.62" y2="8.61"/><line class="cls-1" x1="24.21" y1="4.49" x2="29.9" y2="10.31"/><polyline class="cls-1" points="28.59 13.11 28.54 13.06 25.44 9.9 22.36 6.76 22.29 6.69"/><line class="cls-1" x1="38.4" y1="14.13" x2="44.8" y2="20.48"/><polyline class="cls-1" points="42.44 23.17 40.34 20.74 37.4 17.35 37.32 17.25"/><line class="cls-1" x1="34.58" y1="18.47" x2="39.63" y2="24.95"/><path class="cls-2" d="M311,208.08s5.91-.87,9.65,6.2" transform="translate(-277.75 -204.38)"/><line class="cls-2" x1="43.3" y1="12.56" x2="43.52" y2="13.32"/><line class="cls-1" x1="0.5" y1="31.45" x2="40.24" y2="31.45"/><path class="cls-1" d="M13.53,31.45H27.64a0,0,0,0,1,0,0v.23a2.45,2.45,0,0,1-2.45,2.45H16a2.45,2.45,0,0,1-2.45-2.45v-.23A0,0,0,0,1,13.53,31.45Z"/><line class="cls-1" x1="23.14" y1="31.45" x2="23.14" y2="34.52"/><line class="cls-1" x1="17.89" y1="31.6" x2="17.89" y2="34.37"/><path class="cls-1" d="M301.26,244.88h3.91a4.39,4.39,0,0,1,4.4,4.39V251h-22.9v-1.73a4.39,4.39,0,0,1,4.39-4.39h3.27" transform="translate(-277.75 -204.38)"/><line class="cls-1" x1="23.97" y1="37.12" x2="23.97" y2="43.56"/><line class="cls-1" x1="16.12" y1="37.28" x2="16.12" y2="43.72"/><line class="cls-1" x1="9.08" y1="43.72" x2="31.66" y2="43.72"/><path class="cls-1" d="M299.56,223.64v9.29H281.49V217.32h16.75a5.24,5.24,0,0,0,0,.56A12.94,12.94,0,0,0,299.56,223.64Z" transform="translate(-277.75 -204.38)"/><path class="cls-3" d="M286.77,230.11a2.93,2.93,0,0,1-1.58-.38,2.17,2.17,0,0,1-.84-1.1,5.3,5.3,0,0,1-.25-1.68v-3.68a4.76,4.76,0,0,1,.26-1.65,2.07,2.07,0,0,1,.84-1.06,3,3,0,0,1,1.57-.36,2.86,2.86,0,0,1,1.56.37,2.1,2.1,0,0,1,.83,1.06,4.66,4.66,0,0,1,.26,1.64V227a4.84,4.84,0,0,1-.26,1.65,2.21,2.21,0,0,1-.83,1.1A2.77,2.77,0,0,1,286.77,230.11Zm0-1.07a1.24,1.24,0,0,0,.81-.22,1.06,1.06,0,0,0,.37-.62,3.85,3.85,0,0,0,.1-.95V223a3.63,3.63,0,0,0-.1-.93,1,1,0,0,0-.37-.6,1.31,1.31,0,0,0-.81-.21,1.39,1.39,0,0,0-.83.21,1,1,0,0,0-.37.6,3.63,3.63,0,0,0-.1.93v4.26a3.85,3.85,0,0,0,.1.95,1.12,1.12,0,0,0,.37.62A1.32,1.32,0,0,0,286.77,229Z" transform="translate(-277.75 -204.38)"/><path class="cls-3" d="M294.33,230.11a2.53,2.53,0,0,1-1.4-.36,2.25,2.25,0,0,1-.85-1,4.08,4.08,0,0,1-.33-1.47L293,227a4.64,4.64,0,0,0,.16,1,1.81,1.81,0,0,0,.41.79,1.06,1.06,0,0,0,.81.3,1,1,0,0,0,.79-.29,1.22,1.22,0,0,0,.27-.85,1.73,1.73,0,0,0-.3-1.06,5.54,5.54,0,0,0-.75-.81l-1.63-1.44a2.75,2.75,0,0,1-.71-.92,3,3,0,0,1-.23-1.23,2.17,2.17,0,0,1,.61-1.65,2.29,2.29,0,0,1,1.67-.59,3.11,3.11,0,0,1,1,.15,1.76,1.76,0,0,1,.74.46,2.26,2.26,0,0,1,.46.79,4.15,4.15,0,0,1,.24,1.11l-1.15.31a5.36,5.36,0,0,0-.15-.88,1.28,1.28,0,0,0-.38-.65,1.07,1.07,0,0,0-.77-.25,1,1,0,0,0-1.07,1.07,1.55,1.55,0,0,0,.15.73,2.1,2.1,0,0,0,.49.59l1.64,1.44a5,5,0,0,1,1,1.15,2.88,2.88,0,0,1,.42,1.57,2.49,2.49,0,0,1-.3,1.25,2,2,0,0,1-.82.79A2.47,2.47,0,0,1,294.33,230.11Z" transform="translate(-277.75 -204.38)"/></svg>